<?xml version="1.0" standalone="no"?>
<!DOCTYPE svg PUBLIC "-//W3C//DTD SVG 20010904//EN"
 "http://www.w3.org/TR/2001/REC-SVG-20010904/DTD/svg10.dtd">
<svg version="1.0" xmlns="http://www.w3.org/2000/svg"
 width="124.000000pt" height="103.000000pt" viewBox="0 0 124.000000 103.000000"
 preserveAspectRatio="xMidYMid meet">

<g transform="translate(0.000000,103.000000) scale(0.100000,-0.100000)"
fill="#000000" stroke="none">
<path d="M0 515 l0 -515 620 0 620 0 0 515 0 515 -620 0 -620 0 0 -515z m430
271 c277 -275 283 -281 275 -305 -3 -12 -10 -19 -15 -16 -5 3 -11 1 -14 -4 -4
-5 -1 -13 5 -17 8 -5 9 -3 4 6 -5 9 -4 11 4 6 21 -13 1 -27 -22 -15 -25 13
-497 480 -497 492 0 4 24 7 53 7 l52 0 155 -154z m516 127 c46 -25 110 -91
126 -131 35 -88 28 -184 -20 -259 -27 -44 -99 -103 -124 -103 -8 0 -35 22 -62
49 l-47 48 28 6 c105 23 158 148 97 230 -42 56 -65 62 -254 65 l-175 3 -60 60
-60 60 255 -3 c240 -3 257 -4 296 -25z m-518 -396 c84 -85 154 -160 155 -168
2 -8 6 -20 11 -27 7 -12 4 -12 -14 -2 -13 7 -20 8 -16 2 3 -6 2 -14 -4 -17 -8
-5 -7 -12 2 -23 12 -15 11 -16 -4 -3 -10 7 -15 17 -12 22 3 5 -1 7 -8 4 -7 -3
-91 73 -198 180 l-185 185 60 0 60 0 153 -153z m316 -54 l17 -28 -20 24 c-12
13 -21 17 -21 10 0 -7 -3 -10 -6 -6 -5 5 3 27 10 27 2 0 11 -12 20 -27z m-401
-140 c70 -73 148 -164 117 -135 -17 14 -34 16 -25 2 3 -5 -1 -10 -9 -10 -9 0
-16 -4 -16 -10 0 -5 -5 -10 -11 -10 -6 0 -9 7 -6 14 4 10 1 13 -9 9 -9 -3 -51
31 -119 98 -58 56 -105 105 -105 108 0 4 24 7 54 9 l54 3 75 -78z"/>
</g>
</svg>
